<?xml version="1.0" encoding="utf-8"?>
<!-- Generator: Adobe Illustrator 23.0.5, SVG Export Plug-In . SVG Version: 6.00 Build 0)  -->
<svg version="1.1" id="Layer_1" xmlns="http://www.w3.org/2000/svg" xmlns:xlink="http://www.w3.org/1999/xlink" x="0px" y="0px"
	 viewBox="0 0 1080 1080" style="enable-background:new 0 0 1080 1080;" xml:space="preserve">
<style type="text/css">
	.st0{fill:#FFFFFF;}
	.st1{fill:#18E888;}
</style>
<g>
	<g>
		<g>
			<path class="st0" d="M492.44,561.62v14.95h-15.87v-14.95h-7.42v36.34h7.42V582.5h15.87v15.46h7.42v-36.34H492.44z"/>
			<path class="st0" d="M541.43,570.13c-1.68-2.83-3.96-5.05-6.84-6.64c-2.89-1.6-6.08-2.39-9.58-2.39s-6.65,0.79-9.55,2.39
				c-2.9,1.6-5.21,3.81-6.9,6.64c-1.69,2.83-2.54,6.01-2.54,9.55s0.85,6.78,2.54,9.61c1.7,2.83,4,5.05,6.9,6.64
				c2.89,1.6,6.08,2.4,9.55,2.4s6.65-0.8,9.55-2.4c2.89-1.59,5.2-3.8,6.87-6.64c1.68-2.83,2.52-6.03,2.52-9.61
				S543.11,572.96,541.43,570.13z M534.88,586.09c-0.96,1.84-2.28,3.26-3.98,4.24c-1.7,0.99-3.66,1.49-5.89,1.49
				c-2.23,0-4.2-0.49-5.92-1.49c-1.72-0.99-3.05-2.4-4-4.24c-0.96-1.84-1.43-3.97-1.43-6.41s0.47-4.55,1.43-6.37
				c0.95-1.82,2.28-3.22,4-4.19c1.72-0.98,3.69-1.46,5.92-1.46c2.23,0,4.19,0.49,5.89,1.46c1.7,0.97,3.02,2.37,3.98,4.19
				c0.95,1.83,1.43,3.95,1.43,6.37S535.83,584.25,534.88,586.09z"/>
			<path class="st0" d="M574.35,581.98c-1.1-1.39-2.41-2.43-3.93-3.12c-1.52-0.7-3.48-1.39-5.89-2.09
				c-1.77-0.52-3.14-0.98-4.11-1.38c-0.98-0.4-1.79-0.92-2.44-1.57c-0.65-0.64-0.99-1.45-0.99-2.42c0-1.39,0.43-2.45,1.3-3.18
				c0.87-0.72,2.02-1.1,3.48-1.1c1.66,0,3,0.41,4.01,1.23c1.01,0.81,1.54,1.85,1.62,3.1h8.17c-0.25-3.26-1.57-5.8-3.95-7.63
				c-2.38-1.82-5.5-2.73-9.31-2.73c-2.54,0-4.81,0.43-6.79,1.28c-1.97,0.85-3.52,2.08-4.61,3.67c-1.1,1.6-1.64,3.47-1.64,5.63
				c0,2.29,0.54,4.13,1.62,5.5c1.08,1.37,2.37,2.39,3.87,3.07c1.5,0.68,3.46,1.36,5.86,2.05c1.77,0.49,3.16,0.93,4.17,1.33
				c1.01,0.4,1.84,0.94,2.52,1.64c0.67,0.7,1.01,1.58,1.01,2.66c0,1.31-0.49,2.38-1.49,3.2c-0.99,0.82-2.36,1.23-4.08,1.23
				c-1.73,0-3.03-0.43-4.01-1.3c-0.98-0.88-1.51-2.05-1.62-3.54h-7.96c0.03,2.22,0.65,4.15,1.85,5.78c1.21,1.63,2.84,2.88,4.91,3.75
				c2.07,0.88,4.39,1.31,6.98,1.31c2.72,0,5.08-0.49,7.06-1.49c1.97-0.99,3.48-2.31,4.51-3.98c1.02-1.67,1.53-3.47,1.53-5.42
				C575.99,585.18,575.44,583.36,574.35,581.98L574.35,581.98z"/>
			<path class="st0" d="M581.09,561.62v5.89h9.87v30.45h7.42V567.5h9.87v-5.89H581.09L581.09,561.62z"/>
			<path class="st0" d="M614.3,561.62v36.34h7.43v-36.34H614.3z"/>
			<path class="st0" d="M653.94,561.56v25l-16.81-25h-7.43v36.4h7.43v-24.94l16.81,24.94h7.43v-36.4H653.94L653.94,561.56z"/>
			<path class="st0" d="M684.49,577.76v5.56h12.74c-0.57,2.65-1.75,4.7-3.56,6.17c-1.8,1.48-4.12,2.22-6.95,2.22
				c-2.3,0-4.31-0.49-6.05-1.46c-1.73-0.97-3.09-2.36-4.06-4.16c-0.97-1.8-1.46-3.92-1.46-6.35c0-2.43,0.48-4.44,1.43-6.25
				c0.95-1.8,2.28-3.19,3.98-4.16c1.69-0.97,3.64-1.46,5.83-1.46c1.97,0,3.72,0.4,5.2,1.2c1.49,0.8,2.65,1.96,3.5,3.49h8.54
				c-1.17-3.61-3.28-6.41-6.36-8.41c-3.08-2-6.71-2.99-10.88-2.99c-3.54,0-6.75,0.79-9.63,2.37c-2.89,1.57-5.15,3.78-6.79,6.61
				c-1.64,2.83-2.47,6.03-2.47,9.6s0.83,6.77,2.47,9.58c1.64,2.82,3.9,5,6.79,6.59c2.88,1.58,6.11,2.37,9.68,2.37
				c3.18,0,6.05-0.65,8.62-1.95c2.57-1.3,4.66-3.03,6.29-5.18c1.62-2.15,2.68-4.49,3.18-7.03v-6.35L684.49,577.76L684.49,577.76z"/>
		</g>
		<path class="st0" d="M561.8,548.54h-79.62c-4.91,0-9.39-2.78-11.58-7.18c-2.18-4.4-1.69-9.65,1.28-13.56l60.77-84.08h-50.85
			c-7.14,0-12.92-5.79-12.92-12.92c0-7.14,5.79-12.92,12.92-12.92h76.87c4.91,0,9.39,2.78,11.58,7.18s1.69,9.65-1.28,13.56
			l-60.77,84.08h53.6c7.14,0,12.92,5.79,12.92,12.92S568.94,548.54,561.8,548.54L561.8,548.54z"/>
		<path class="st0" d="M662.99,548.92h-23.96c-36.13,0-65.52-29.39-65.52-65.52s29.39-65.52,65.52-65.52
			c36.13,0,65.52,29.39,65.52,65.52v64.8H678.7v-64.8c0-21.88-17.79-39.67-39.67-39.67c-21.88,0-39.67,17.79-39.67,39.67
			c0,21.88,17.79,39.67,39.67,39.67h23.96V548.92z"/>
		<g>
			<path class="st0" d="M763.26,449.53c-11.41,6.98-19.03,19.54-19.03,33.86v114.93h-25.85V483.39c0-23.69,12.63-44.47,31.51-55.98
				L763.26,449.53L763.26,449.53z"/>
			<path class="st0" d="M849.43,483.39c0,36.13-29.4,65.52-65.53,65.52h-24.49v-25.86h24.49c21.88,0,39.67-17.79,39.67-39.67
				c0-14.32-7.62-26.89-19.03-33.86l13.37-22.12C836.79,438.92,849.43,459.7,849.43,483.39L849.43,483.39z"/>
		</g>
	</g>
	<path class="st1" d="M807.58,425.36c-0.13,0.49-0.36,0.98-0.63,1.45l-13.93,23.06c-2.06,2.83-4.63,10.16-9.11,9.59
		c-4.47,0.56-7.07-6.73-9.11-9.59l-13.93-23.06c-0.24-0.38-0.43-0.79-0.57-1.19c-0.61-1.8,0.42-3.74,2.22-4.36
		c0.55-0.19,1.1-0.37,1.65-0.55c6.22-1.96,12.72-2.81,19.24-2.81h1c6.52,0,13.03,0.85,19.24,2.81c0.55,0.18,1.1,0.36,1.65,0.54
		c1.69,0.58,2.76,2.35,2.29,4.08C807.59,425.34,807.58,425.35,807.58,425.36L807.58,425.36z"/>
	<path class="st1" d="M380.22,438.31c-0.94,7.23-9.11,14.69-17.07,18.59l-46.09-29.6c-5.89,6.01-3.45,14.33,3.17,19.28
		c4.06,3.11,9.55,5.16,15.47,5.75c6.94,0.71,12.41,3.95,13.92,8.25l0.05,0.16c-12.93,2.09-28,0.07-38.9-6.88
		c-19.17-12.79-13.21-29.72,5.5-39.11l46.09,29.6c5.9-6.01,3.44-14.33-3.17-19.28c-4.04-3.1-9.54-5.14-15.47-5.75
		c-6.94-0.72-12.41-3.95-13.92-8.26l-0.05-0.16c13.81-2.24,30.83,0.33,41.61,8.82C378.11,424.99,381.26,431.61,380.22,438.31
		L380.22,438.31z"/>
	<g>
		<path class="st0" d="M444.16,426.35l-0.01,0.03c-0.39-0.26-0.85-0.51-1.35-0.77l-3.8-2.05c-3.26-1.75-7.88-4.22-13.37-7.17
			c-10.96-5.87-25.37-13.58-39.07-20.91c-19.6-10.5-38.23-20.46-42.67-22.85l-1.05-0.58c-1.97-1.05-4.31-1.05-6.26,0.01
			l-101.28,54.24c-2.63,1.46-3.89,4.68-3,7.68c0.39,1.29,43.51,134.79,47.1,138.71l0.19,0.21l56.13,41.92
			c1.17,0.89,2.59,1.33,3.99,1.33c1.4,0,2.81-0.44,3.96-1.32l55.76-41.64c1.76-1.09,3.65-5.02,34.67-99.34
			c6.31-19.18,12.28-37.31,13.12-39.37l0.19-0.3l0.1-0.51C448.11,430.77,446.74,427.76,444.16,426.35z M333.01,595.89l-43.53-32.51
			l-13.92-41.53l57.45,37.76V595.89z M333.01,543.4l-64.42-42.36l-17.65-52.68l82.07,52.65V543.4z M339.71,489.21l-87.87-56.36
			l87.87-47.06l87.87,47.06L339.71,489.21z M346.42,543.4v-42.38l82.07-52.65l-17.66,52.68L346.42,543.4z M389.95,563.39
			l-43.53,32.51v-36.28l57.45-37.76L389.95,563.39z"/>
	</g>
</g>
</svg>
